<?xml version="1.0" encoding="UTF-8"?>
<svg xmlns="http://www.w3.org/2000/svg" xmlns:xlink="http://www.w3.org/1999/xlink" width="334.69pt" height="187.86pt" viewBox="0 0 334.69 187.86" version="1.1">
<defs>
<clipPath id="clip1">
  <path d="M 0 9 L 134 9 L 134 187.859375 L 0 187.859375 Z M 0 9 "/>
</clipPath>
<clipPath id="clip2">
  <path d="M 317 168 L 334.691406 168 L 334.691406 186 L 317 186 Z M 317 168 "/>
</clipPath>
<clipPath id="clip3">
  <path d="M 142 59 L 318 59 L 318 187.859375 L 142 187.859375 Z M 142 59 "/>
</clipPath>
</defs>
<g id="surface1">
<path style=" stroke:none;fill-rule:nonzero;fill:rgb(0%,0%,0%);fill-opacity:1;" d="M 220.375 49.976563 C 235.707031 49.476563 234.542969 38.226563 234.542969 38.226563 L 234.707031 13.226563 L 221.957031 13.390625 L 221.957031 34.390625 C 221.957031 34.390625 221.867188 37.183594 219.625 37.390625 C 217.832031 37.558594 216.457031 35.121094 216.625 34.308594 C 216.746094 33.71875 216.875 13.308594 216.875 13.308594 L 203.875 13.308594 L 204.042969 37.640625 C 204.042969 37.640625 205.042969 50.476563 220.375 49.976563 "/>
<path style=" stroke:none;fill-rule:nonzero;fill:rgb(0%,0%,0%);fill-opacity:1;" d="M 195.207031 49.308594 C 195.207031 49.308594 195.125 31.808594 195.207031 29.558594 C 195.292969 27.308594 199.792969 27.890625 199.792969 27.890625 L 199.707031 12.808594 C 199.707031 12.808594 190.554688 12.628906 186.875 16.308594 C 183.875 19.308594 182.394531 23.683594 182.207031 24.558594 C 182.019531 25.433594 182.457031 49.308594 182.457031 49.308594 "/>
<g clip-path="url(#clip1)" clip-rule="nonzero">
<path style=" stroke:none;fill-rule:nonzero;fill:rgb(0%,0%,0%);fill-opacity:1;" d="M 84.554688 124.210938 C 84.554688 124.210938 81.722656 136.210938 66.554688 137.210938 C 51.390625 138.210938 49.554688 121.546875 49.554688 121.546875 C 49.554688 121.546875 49.65625 120.398438 50.074219 118.734375 C 50.308594 116.589844 51.09375 114.527344 52.421875 112.863281 C 52.722656 112.359375 53.054688 111.859375 53.417969 111.371094 C 54.480469 109.421875 56.140625 107.820313 58.390625 106.925781 C 60.0625 105.625 62.246094 104.808594 64.957031 104.808594 C 65.167969 104.808594 65.363281 104.828125 65.566406 104.839844 C 72.070313 103.800781 78.890625 107.546875 78.890625 107.546875 L 78.890625 57.878906 C 70.707031 53.785156 59.535156 53.996094 54.230469 54.804688 C 54.027344 54.804688 53.832031 54.808594 53.625 54.808594 C 51.84375 54.808594 50.109375 55.214844 48.496094 55.917969 C 40.578125 57.144531 28.449219 65.28125 24.890625 68.546875 C -7.113281 94.210938 0.890625 130.546875 0.890625 130.546875 C 0.890625 130.546875 0.890625 154.878906 25.222656 172.542969 C 49.554688 190.210938 67.890625 186.878906 67.890625 186.878906 C 67.890625 186.878906 89.222656 188.878906 104.222656 175.542969 C 127.042969 160.113281 132.554688 128.546875 132.554688 128.546875 L 133.222656 10.210938 L 84.554688 9.878906 "/>
</g>
<path style=" stroke:none;fill-rule:nonzero;fill:rgb(0%,0%,0%);fill-opacity:1;" d="M 251.875 49.226563 L 251.832031 28.558594 C 251.832031 28.558594 251.292969 26.226563 254.542969 26.226563 C 257.457031 26.246094 256.875 28.640625 256.875 28.640625 L 256.710938 49.226563 L 270.875 49.058594 L 270.710938 28.308594 C 270.710938 28.308594 270.625 26.058594 273.460938 26.140625 C 276.292969 26.226563 276.042969 28.308594 276.042969 28.308594 L 276.042969 49.226563 L 289.042969 49.058594 L 289.042969 24.558594 C 289.042969 24.558594 288.460938 11.976563 274.460938 12.308594 C 265.125 12.390625 263.542969 18.476563 263.542969 18.476563 C 263.542969 18.476563 261.960938 12.476563 252.460938 12.390625 C 241.042969 11.890625 237.960938 23.390625 237.960938 23.390625 L 238.042969 49.476563 "/>
<path style=" stroke:none;fill-rule:nonzero;fill:rgb(0%,0%,0%);fill-opacity:1;" d="M 309.542969 44.890625 C 309.542969 44.890625 314.042969 39.390625 313.875 30.390625 C 314.210938 27.808594 317.792969 28.140625 317.792969 28.140625 L 317.875 13.140625 C 317.875 13.140625 308.125 12.890625 305.375 15.140625 C 301.710938 17.640625 299.269531 21.371094 298.960938 24.308594 C 298.648438 27.21875 299.625 30.808594 298.042969 33.390625 C 296.460938 35.976563 293.875 35.226563 293.875 35.226563 L 293.875 49.140625 L 303.625 49.140625 C 303.625 49.140625 307.710938 48.140625 309.542969 44.890625 "/>
<path style=" stroke:none;fill-rule:nonzero;fill:rgb(0%,0%,0%);fill-opacity:1;" d="M 326.046875 176.984375 L 324.738281 176.984375 L 324.738281 173.371094 C 324.945313 173.3125 325.386719 173.253906 326.003906 173.253906 C 327.355469 173.265625 328.28125 173.824219 328.28125 175.105469 C 328.28125 176.234375 327.414063 176.984375 326.046875 176.984375 M 327.695313 177.527344 L 327.695313 177.484375 C 328.734375 177.132813 329.558594 176.265625 329.558594 174.957031 C 329.558594 174.191406 329.28125 173.515625 328.78125 173.078125 C 328.164063 172.519531 327.28125 172.269531 325.914063 172.269531 C 325.035156 172.269531 324.109375 172.339844 323.460938 172.472656 L 323.460938 182.246094 L 324.738281 182.246094 L 324.738281 177.953125 L 325.945313 177.953125 C 327.105469 178 327.636719 178.511719 327.929688 179.878906 C 328.207031 181.113281 328.429688 181.964844 328.589844 182.246094 L 329.910156 182.246094 C 329.707031 181.863281 329.472656 180.910156 329.148438 179.527344 C 328.914063 178.5 328.457031 177.792969 327.695313 177.527344 "/>
<g clip-path="url(#clip2)" clip-rule="nonzero">
<path style=" stroke:none;fill-rule:nonzero;fill:rgb(0%,0%,0%);fill-opacity:1;" d="M 326.191406 184.089844 C 322.546875 184.089844 319.589844 181.132813 319.589844 177.488281 C 319.589844 173.839844 322.546875 170.882813 326.191406 170.882813 C 329.839844 170.882813 332.796875 173.839844 332.796875 177.488281 C 332.796875 181.132813 329.839844 184.089844 326.191406 184.089844 M 326.191406 168.988281 C 321.5 168.988281 317.695313 172.792969 317.695313 177.488281 C 317.695313 182.183594 321.5 185.988281 326.191406 185.988281 C 330.886719 185.988281 334.691406 182.183594 334.691406 177.488281 C 334.691406 172.792969 330.886719 168.988281 326.191406 168.988281 "/>
</g>
<path style=" stroke:none;fill-rule:nonzero;fill:rgb(0%,0%,0%);fill-opacity:1;" d="M 148.921875 45.621094 C 155.746094 50.574219 160.886719 49.640625 160.886719 49.640625 C 160.886719 49.640625 166.871094 50.199219 171.078125 46.460938 C 177.433594 43.09375 179.019531 33.277344 179.019531 33.277344 L 179.210938 0.0976563 L 165.5625 0 L 165.5625 32.0625 C 165.5625 32.0625 164.765625 35.429688 160.511719 35.710938 C 156.257813 35.988281 155.746094 31.316406 155.746094 31.316406 C 155.746094 31.316406 156.070313 27.578125 159.109375 27.015625 C 161.167969 25.847656 163.972656 27.390625 163.972656 27.390625 L 163.972656 13.464844 C 160.792969 11.871094 156.003906 12.597656 156.214844 12.878906 C 154.109375 12.667969 149.949219 15.425781 148.828125 16.453125 C 139.855469 23.652344 142.097656 33.839844 142.097656 33.839844 C 142.097656 33.839844 142.097656 40.664063 148.921875 45.621094 "/>
<g clip-path="url(#clip3)" clip-rule="nonzero">
<path style=" stroke:none;fill-rule:nonzero;fill:rgb(0%,0%,0%);fill-opacity:1;" d="M 317.457031 59.558594 L 269.957031 59.808594 L 270.207031 131.308594 C 270.207031 131.308594 270.289063 140.808594 261.957031 140.808594 C 255.4375 140.808594 254.457031 131.558594 254.457031 131.558594 L 253.707031 117.558594 C 253.707031 117.558594 253.957031 102.058594 229.707031 101.058594 C 209.457031 102.308594 207.957031 117.308594 207.957031 117.308594 L 207.207031 132.308594 C 207.207031 132.308594 206.625 140.476563 199.207031 140.808594 C 193.792969 140.976563 191.957031 134.308594 191.707031 132.558594 C 191.457031 130.808594 191.207031 59.808594 191.207031 59.808594 L 142.207031 59.808594 L 142.207031 138.808594 C 142.207031 138.808594 142.957031 186.308594 194.207031 187.308594 C 215.957031 188.140625 230.707031 174.808594 230.707031 174.808594 C 230.707031 174.808594 251.957031 188.808594 270.289063 187.808594 C 303.957031 188.140625 315.601563 153.757813 317.125 149.308594 C 318.648438 144.863281 317.457031 59.558594 317.457031 59.558594 "/>
</g>
</g>
</svg>
