<svg xmlns="http://www.w3.org/2000/svg" height="800" width="1200" version="1.0" viewBox="-103.95 -42.197 900.9 253.182"><path d="M160.287 166.473c-2.868-1.365-7.308-4.577-9.869-7.137l-4.655-4.655-4.131 3.915c-8.94 8.47-2.003 7.735-75.882 8.047L0 166.92v-2.099c0-2.983 2.084-4.689 6.592-5.393 2.15-.335 4.66-.843 5.578-1.128.919-.286 2.67-.712 3.894-.947 4.087-.787 12.375-5.717 15.758-9.372 3.63-3.923 6.434-8.886 7.692-13.616.44-1.65.927-3.45 1.084-4 .157-.55.558-2.125.892-3.5.333-1.375.81-3.287 1.058-4.25l.904-3.5c.248-.962.72-2.875 1.048-4.25.328-1.375.786-3.175 1.017-4 .483-1.723 6.286-23.495 7.062-26.5.285-1.1.699-2.675.921-3.5.222-.825.65-2.512.952-3.75l1.096-4.5c.302-1.237.732-2.925.956-3.75 1.644-6.047 7.715-28.889 8.106-30.5.268-1.1.668-2.675.89-3.5 1.433-5.325 1.706-6.765 1.704-9-.004-4.365-.6-7-1.583-7-.525 0-.682-.273-.348-.606.85-.85-3.464-4.974-7.678-7.34-1.944-1.092-5.525-2.17-7.958-2.395-5.568-.515-6.809-1.286-6.435-3.997.661-4.796-.61-4.695 55.972-4.42 51.016.247 53.314.338 53.656 2.114.517 2.686-.803 3.582-7.612 5.17C138.376 8.988 131 11.95 131 13.101c0 .42-.48.764-1.067.764-2.688 0-10.453 10.312-11.557 15.348a99.194 99.194 0 01-.876 3.652c-.222.825-.608 2.4-.857 3.5s-1.87 7.175-3.6 13.5c-1.731 6.325-3.37 12.4-3.643 13.5-.273 1.1-.678 2.675-.9 3.5-.222.825-.672 2.625-1 4a183.053 183.053 0 01-1 4c-.222.825-.636 2.4-.919 3.5-.536 2.083-5.335 19.882-6.066 22.5-.23.825-.687 2.625-1.015 4a183.053 183.053 0 01-1 4c-.222.825-.603 2.4-.847 3.5-.243 1.1-1.639 6.275-3.1 11.5-1.463 5.225-2.86 10.288-3.106 11.25-.246.963-.713 2.763-1.038 4-.326 1.238-.819 4.349-1.096 6.914-.43 3.994-.204 4.824 1.582 5.78 2.543 1.36 7.742 1.63 11.058.574 5.39-1.717 7.316-5.737 12.543-26.185 4.712-18.428 5.32-20.795 6.004-23.333.222-.825.672-2.625 1-4 1.087-4.558 1.522-6.213 3.284-12.5.617-2.2 1.353-5.125 1.636-6.5.525-2.552 7.15-27.875 8.242-31.5.752-2.497.964-11.488.319-13.5-.604-1.884-3.42-4.49-7.733-7.155-6.054-3.742-3.944-4.324 16.846-4.643 15.302-.236 20.17.011 22.918 1.161 9.366 3.921 12.543 11.233 9.62 22.137-.294 1.1-.782 3.013-1.084 4.25l-1.096 4.5c-.302 1.238-.775 3.15-1.051 4.25-.277 1.1-.72 3.047-.986 4.327-1.407 6.79-4.33 18.227-4.89 19.133-1.062 1.718.384 1.193 4.795-1.74 8.352-5.556 13.92-7.202 22.955-6.785 13.714.633 26.404 11.509 27.038 23.173.177 3.261.34 3.407 3.13 2.794 1.62-.355 3.554-1.256 4.3-2.002.746-.746 1.908-1.703 2.583-2.128.675-.424 2.784-2.797 4.687-5.272 4.87-6.336 5.322-6.746 11.72-10.599 9.339-5.623 15.593-6.9 33.767-6.9 15.334 0 21.388.75 29.217 3.627 7.428 2.73 11.833 6.053 14.152 10.68 2.368 4.727 2.112 7.12-2.914 27.192a8440.148 8440.148 0 00-4.495 18c-1.158 4.779-1.52 6.22-2.072 8.25-1.892 6.955.766 11.688 6.287 11.199 1.554-.138 3.377-.295 4.052-.35 1.524-.123 4.168-4.057 4.855-7.224 1.066-4.919 1.35-6.084 1.918-7.875.321-1.012.79-2.776 1.042-3.92.252-1.144.661-2.867.91-3.83.248-.962.698-2.762 1-4l1.096-4.5c.302-1.237.73-2.925.952-3.75.222-.825.629-2.4.904-3.5l1-4 1-4c1.143-4.574 2.157-8.829 2.62-11 .93-4.367-3.528-9.274-11.387-12.532-3.97-1.645-5.637-2.882-5.637-4.182 0-1.746 1.308-1.84 24.277-1.752 25.868.1 28.657.558 33.079 5.424 2.279 2.508 3.854 6.393 3.092 7.626-1.036 1.676.484.947 3.285-1.577 5.92-5.335 8.816-7.504 10.017-7.506.687 0 1.25-.477 1.25-1.06 0-.582.45-.78 1-.44.55.339 1 .066 1-.609 0-.674.296-.93.658-.567.362.362 1.15.277 1.75-.19 2.237-1.734 11.187-3.25 18.027-3.054 5.213.15 8.357.85 11.994 2.669 5.954 2.978 6.784 3.765 9.305 8.813 1.916 3.836 2.377 11.86.973 16.937l-3.184 11.5c-1.447 5.225-2.852 10.625-3.121 12-.27 1.375-.932 4.075-1.472 6-.54 1.925-1.25 6.068-1.576 9.207-.56 5.387-.423 5.878 2.45 8.75 2.89 2.89 3.434 3.04 10.87 2.964 4.304-.043 7.254-.309 6.555-.59-1.862-.75-4.48-6.28-4.97-10.497-.235-2.022.547-7.182 1.743-11.5 1.194-4.309 2.356-8.621 2.584-9.584.228-.962.617-2.537.866-3.5.248-.962.72-2.875 1.048-4.25.328-1.375.8-3.287 1.048-4.25l.904-3.5c.248-.962.664-2.718.924-3.902.95-4.334 4.407-9.782 9.607-15.142 5.12-5.278 18.515-11.266 28.903-12.922 9.437-1.504 30.224-.878 41.45 1.25 7.817 1.48 18.788 9.438 19.635 14.242 1.174 6.66.106 18.325-2.378 25.974l-2.68 8.25h-28.398c-17.781 0-28.627.373-29.013.996-.338.548-.837 2.01-1.107 3.25a132.88 132.88 0 01-.943 4.004c-3.179 12.311-3.468 15.282-1.73 17.763 1.335 1.907 2.23 2.15 6.428 1.747 5.208-.5 6.122-1.238 16.846-13.584 2.473-2.847 5.061-5.176 5.75-5.176.69 0 1.254-.375 1.254-.833 0-1.304.716-1.348 33.048-2.026l30.547-.64 2.453-2.594c1.348-1.427 7.402-7.632 13.452-13.79l11-11.196-11 .16c-6.844.1-12.854.755-15.906 1.735-5.728 1.84-12.44 7.828-15.409 13.751-2.69 5.366-4.994 7.347-6.246 5.369-1.346-2.127-1.181-3.523 1.64-13.936 1.417-5.225 2.73-10.235 2.918-11.133 1.318-6.274 8.707-15.4 15.117-18.67 3.99-2.036 5.663-2.11 55.75-2.47 28.4-.206 51.636-.089 51.636.259 0 .347-15.188 15.797-33.75 34.332l-33.75 33.7 16-.272c14.838-.253 16.4-.462 21.5-2.868 6.171-2.911 10.782-6.988 14.42-12.75 2.79-4.421 7.43-15.068 7.896-18.118.42-2.752 2.224-4.4 4.051-3.7 1.467.564 1.506 2.383.185 8.65-.285 1.353-.788 4.269-1.117 6.479-.33 2.21-.764 4.285-.965 4.61-.2.324-.662 2.809-1.025 5.52-.363 2.712-.83 5.216-1.04 5.564-.208.349-.647 2.318-.974 4.377-1.084 6.82-1.35 7.723-3.505 11.856-2.566 4.924-5.638 7.902-11.242 10.897-4.143 2.215-4.663 2.24-52.684 2.53-26.675.163-53 .163-58.5 0l-10-.293 13-12.736 13-12.737-8.3-.013c-10.434-.017-12.582 1.065-19.617 9.882-3.02 3.786-7.2 8.296-9.288 10.023-7.32 6.054-7.651 6.081-73.327 6.081-43.171 0-60.61-.325-63.069-1.177-5.565-1.927-9.374-6.87-9.11-11.823.092-1.712 1.533-8.625 2.711-13a169.31 169.31 0 002.107-9c.277-1.375 1.604-6.856 2.949-12.181 1.344-5.325 2.444-10.737 2.444-12.028 0-6.003-6.933-9.428-12.87-6.359-4.916 2.543-5.557 3.983-10.713 24.068a3410.6 3410.6 0 01-.965 3.75 133.44 133.44 0 00-.91 3.83 54.356 54.356 0 01-1.042 3.92 39.24 39.24 0 00-.937 3.674c-1.852 9.613-4.55 15.578-8.877 19.62-6.49 6.062-6.78 6.101-47.187 6.488l-37.001.354-3.5-2.338c-1.924-1.286-4.186-3.705-5.027-5.375l-1.529-3.038-2.804 2.646c-1.542 1.456-5.334 4.182-8.427 6.058-5.264 3.193-6.273 3.433-15.798 3.749-11.074.367-13.303-.274-19.068-5.486-5.73-5.18-7.78-12.15-6.134-20.852.751-3.973 2.886-8.5 4.009-8.5.494 0 .673-.363.399-.807-.275-.445.673-1.682 2.106-2.75 1.433-1.069 3.174-2.505 3.869-3.193.695-.687 1.745-1.25 2.335-1.25.589 0 1.071-.34 1.071-.755 0-.805 10.27-5.027 13.956-5.736 1.212-.234 2.955-.651 3.874-.928.918-.276 2.795-.7 4.17-.94 12.155-2.126 18.651-4.375 23.645-8.184 6.686-5.1 8.3-13.501 2.855-14.868-3.07-.77-6.769 1.032-12.055 5.875-5.558 5.091-11.372 9.024-15.344 10.378-1.976.673-9.617 1.158-18.25 1.158-13.448 0-14.858.165-14.928 1.75-.042.963-.216 2.425-.387 3.25-.171.825-.56 2.85-.865 4.5-.304 1.65-.826 4.125-1.16 5.5-.334 1.375-.769 3.175-.966 4-2.262 9.459-8.486 20.157-15.999 27.5-8.445 8.255-12.215 9.794-25.046 10.222-10.067.337-11.442.158-16.213-2.114zm102.886-16.534c2.143-.236 7.348-6.163 9.964-11.345 2.966-5.876 3.445-7.268 4.5-13.089l.518-2.86-3.328 2.475c-1.83 1.361-6.566 4.154-10.525 6.207-7.761 4.023-10.712 7.307-10.816 12.038-.083 3.766 3.659 7.65 6.802 7.062 1.217-.227 2.515-.447 2.885-.488zm-96.955-7.313c4.227-4.457 7.89-11.554 9.426-18.26 1.365-5.96 1.548-7.46 1.521-12.5-.045-8.63-1.679-12.59-5.6-13.574-8.936-2.243-20.703 18.687-20.14 35.817.3 9.088.712 10.639 3.403 12.818 3.101 2.511 5.952 1.435 11.39-4.3zm352.331-38.51c1.319-8.071 1.222-9.48-.79-11.491-1.519-1.52-2.72-1.802-5.469-1.287-5.913 1.11-9.108 5.526-10.688 14.777l-.47 2.75h16.64z"/></svg>